<svg xmlns="http://www.w3.org/2000/svg" width="458" height="78"><path fill-rule="evenodd" fill="#FFF" d="M436.935 75.86l-3.716-13.357h-28.572l-3.833 13.357h-19.976l25.435-73.984h25.203l25.668 73.984h-20.209zm-15.447-52.149a67.5 67.5 0 01-1.103-3.658 47.453 47.453 0 01-.871-3.775 9.366 9.366 0 01-.349-1.335c-.078-.425-.156-.832-.232-1.22a18.44 18.44 0 01-.29 1.22 12.93 12.93 0 00-.291 1.335.934.934 0 00-.116.407.95.95 0 01-.116.406 73.046 73.046 0 01-.755 3.368 106.28 106.28 0 01-.871 3.252l-7.549 24.507h20.092l-7.549-24.507zm-97.793 13.938c-.775-.929-1.51-2.033-2.207-3.31a55.488 55.488 0 01-1.974-4.007 165.605 165.605 0 01-1.336-2.962c-.426-.967-.833-1.876-1.219-2.729.386 2.401.697 4.84.929 7.317.232 2.479.348 4.956.348 7.433V75.86h-19.512V1.876h19.512l27.875 37.979a57.712 57.712 0 012.032 3.427 116.996 116.996 0 011.917 3.658l1.393 3.02c.465 1.007.93 1.974 1.394 2.903a43.042 43.042 0 00-.29-2.439 40.89 40.89 0 01-.29-2.439 87.838 87.838 0 01-.349-4.761 104.29 104.29 0 01-.116-4.995V1.876h19.396V75.86h-19.396l-28.107-38.211zm-39.487 6.62a29.577 29.577 0 01-.871 4.82 42.108 42.108 0 01-1.568 4.704c-3.252 7.511-8.325 13.338-15.215 17.479-6.893 4.143-14.132 6.214-21.719 6.214-.543 0-1.065-.02-1.568-.058a19.853 19.853 0 00-1.568-.058 45.672 45.672 0 01-7.84-1.394 37.39 37.39 0 01-7.491-2.904c-6.504-3.406-11.614-8.264-15.331-14.576-3.716-6.309-5.575-12.872-5.575-19.686 0-1.005.039-2.012.117-3.02a23.49 23.49 0 01.464-3.135 45.908 45.908 0 011.626-6.098 37.826 37.826 0 012.555-5.865c3.561-6.581 8.517-11.615 14.867-15.099 6.348-3.484 12.968-5.226 19.86-5.226.929 0 1.877.04 2.846.116l2.845.232a42.407 42.407 0 018.537 2.091 40.023 40.023 0 018.072 3.949c5.497 3.562 9.756 8.304 12.776 14.227 3.019 5.923 4.529 12.099 4.529 18.525 0 .775-.02 1.568-.058 2.381-.04.813-.136 1.608-.29 2.381zm-19.919-6.504c-.04-.465-.058-.929-.058-1.394-.388-3.328-1.394-6.542-3.02-9.64-1.626-3.096-3.872-5.497-6.736-7.201a31.588 31.588 0 00-2.323-1.045 28.42 28.42 0 00-2.323-.813c-.775-.154-1.55-.29-2.323-.406a15.537 15.537 0 00-2.323-.175c-3.948 0-7.589 1.24-10.917 3.717-3.33 2.479-5.653 5.769-6.969 9.872a2.22 2.22 0 00-.174.465c-.04.156-.058.31-.058.464a19.623 19.623 0 00-.581 2.149c-.156.737-.31 1.492-.464 2.265a23.397 23.397 0 00-.174 1.568c-.04.504-.058 1.027-.058 1.568v.871c0 .272.038.562.116.871.232 4.105 1.49 7.995 3.774 11.672 2.283 3.679 5.439 6.098 9.466 7.259.465.156.929.29 1.394.407.464.116.967.214 1.51.29.464.078.929.136 1.393.174.465.04.929.058 1.394.058 4.103 0 7.8-1.219 11.092-3.658 3.29-2.439 5.671-5.709 7.143-9.814.232-.773.444-1.586.638-2.439.193-.852.329-1.703.407-2.556.076-.54.134-1.083.174-1.626.038-.54.058-1.045.058-1.509 0-.465-.02-.93-.058-1.394zm-83.332 31.126a33.614 33.614 0 01-11.847 5.111 80.716 80.716 0 01-12.892 1.742 58.227 58.227 0 01-3.658.116h-23.868V1.876h25.145c1.2 0 2.381.04 3.543.117 4.181.232 8.304.813 12.369 1.742 4.065.929 7.8 2.633 11.208 5.11 4.335 3.02 7.703 7.009 10.104 11.963 2.399 4.956 3.755 10.066 4.065 15.331.076.464.116.929.116 1.394v2.903c-.232 5.499-1.549 10.801-3.949 15.912-2.4 5.11-5.847 9.291-10.336 12.543zm-6.04-30.894a3.9 3.9 0 00-.116-.929c-.156-2.942-.853-5.787-2.091-8.537-1.239-2.747-2.943-4.936-5.11-6.562-1.626-1.315-3.426-2.206-5.401-2.671a31.675 31.675 0 00-6.097-.813h-7.549v40.766c.232 0 .482.02.755.058.27.04.522.059.754.059.309 0 .581.019.813.058.233.04.465.058.697.058a52.067 52.067 0 004.878-.233 30.512 30.512 0 005.924-1.045c1.934-.541 3.676-1.354 5.226-2.439 2.477-1.78 4.316-4.199 5.517-7.259 1.2-3.058 1.8-6.252 1.8-9.582v-.929zM69.344 1.876h45.412V18.02H89.205v12.892h24.041v15.796H89.205v12.543h25.551V75.86H69.344V1.876zM54.71 54.257c-.465 4.027-1.762 7.86-3.891 11.498-2.13 3.641-4.976 6.428-8.536 8.363a30.326 30.326 0 01-4.065 1.568 56.691 56.691 0 01-4.181 1.103 36.107 36.107 0 01-3.485.523 33.914 33.914 0 01-3.368.174h-1.278c-4.645-.156-9.215-1.181-13.704-3.078C7.71 72.512 3.723 69.976.239 66.801L9.53 51.934c.076.078.135.136.174.175.039.039.097.098.175.174a49.203 49.203 0 007.084 6.446c2.632 1.974 5.652 3.039 9.06 3.194.076 0 .174.02.29.058.116.04.212.058.29.058.077 0 .175.02.291.058.116.04.212.058.29.058a8.655 8.655 0 001.974-.232 10.284 10.284 0 003.543-1.394c1.121-.697 1.992-1.548 2.613-2.555l.232-.465.233-.464c.154-.541.27-1.046.348-1.51a7.97 7.97 0 00.116-1.278c0-2.09-.911-3.851-2.729-5.284a21.552 21.552 0 00-5.865-3.31 25.197 25.197 0 00-2.439-.755 95.105 95.105 0 00-2.207-.523.492.492 0 01-.232-.058.531.531 0 00-.233-.058 36.984 36.984 0 01-10.685-4.472c-3.33-2.05-5.615-5.012-6.852-8.885a35.352 35.352 0 01-.639-2.439 19.116 19.116 0 01-.407-2.671 3.555 3.555 0 01-.116-.871v-.871c0-.619.018-1.238.058-1.858.038-.619.135-1.238.291-1.859a25.4 25.4 0 011.161-4.645c.541-1.548 1.238-2.942 2.091-4.182 2.477-4.103 5.671-7.044 9.581-8.827C20.93.909 25.015.018 29.275.018c1.005 0 2.032.058 3.077.174 1.046.117 2.109.253 3.194.407a40.927 40.927 0 018.305 2.323c2.747 1.085 5.284 2.363 7.607 3.833L45.07 21.04a44.702 44.702 0 00-6.62-4.065c-2.323-1.161-4.84-1.742-7.549-1.742h-.93c-1.782.232-3.446 1.027-4.994 2.381-1.549 1.356-2.323 2.807-2.323 4.355 0 .233.019.465.059.697.038.232.134.465.29.697.154.543.425 1.045.813 1.51.386.464.813.891 1.277 1.277.852.697 2.091 1.336 3.717 1.917s3.328 1.143 5.11 1.684c1.47.388 2.904.755 4.298 1.103 1.393.349 2.555.679 3.484.988 4.335 1.549 7.587 4.123 9.756 7.723 2.167 3.601 3.29 7.415 3.368 11.44v.581c0 .464-.02.929-.058 1.394-.04.464-.058.891-.058 1.277z"/></svg>